<?xml version="1.0" encoding="utf-8"?>
<!-- Generator: Adobe Illustrator 16.0.0, SVG Export Plug-In . SVG Version: 6.00 Build 0)  -->
<!DOCTYPE svg PUBLIC "-//W3C//DTD SVG 1.1//EN" "http://www.w3.org/Graphics/SVG/1.1/DTD/svg11.dtd">
<svg version="1.1" id="レイヤー_1" xmlns="http://www.w3.org/2000/svg" xmlns:xlink="http://www.w3.org/1999/xlink" x="0px"
	 y="0px" width="960px" height="320px" viewBox="0 0 960 320" enable-background="new 0 0 960 320" xml:space="preserve">
<rect y="-0.891" stroke="#FFFFFF" stroke-miterlimit="10" width="960" height="321.781"/>
<g>
	<path fill="#FFFFFF" d="M187.841,164.823c0-2.684-1.491-5.069-3.579-6.263l-59.953-34.6c-0.895-0.597-2.087-0.895-3.281-0.895
		h-0.597c-1.193,0-2.386,0.298-3.28,0.895l-59.954,34.6c-2.087,1.193-3.579,3.579-3.579,6.263v92.764
		c0,1.195,0.597,2.388,1.789,2.983c1.194,0.599,2.387,0.599,3.579,0l35.495-20.282c2.386-1.193,3.579-3.578,3.579-6.263v-43.249
		c0-2.685,1.491-5.072,3.579-6.265l15.213-8.648c1.193-0.599,2.386-0.896,3.579-0.896s2.387,0.299,3.579,0.896l15.212,8.648
		c2.387,1.192,3.58,3.58,3.58,6.265v43.249c0,2.685,1.491,5.069,3.579,6.263l35.495,20.282c1.192,0.599,2.386,0.599,3.578,0
		c1.194-0.596,1.79-1.788,1.79-2.983L187.841,164.823z"/>
	<path fill="#FFFFFF" d="M507.593,37.461c-1.195-0.597-2.387-0.597-3.581,0c-1.192,0.597-1.789,1.79-1.789,2.983v91.869
		c0,0.895-0.599,1.789-1.193,2.087c-0.896,0.599-1.789,0.599-2.386,0l-14.914-8.648c-2.089-1.194-5.071-1.194-7.16,0l-59.953,34.6
		c-2.385,1.191-3.579,3.578-3.579,6.262v69.201c0,2.685,1.492,5.07,3.579,6.264l59.953,34.599c2.388,1.195,5.071,1.195,7.16,0
		l59.953-34.599c2.089-1.193,3.579-3.579,3.579-6.264V63.411c0-2.684-1.49-5.07-3.579-6.265L507.593,37.461z M501.924,213.146
		c0,0.596-0.3,1.193-0.895,1.489l-20.581,11.934c-0.597,0.297-1.192,0.297-1.789,0l-20.58-11.934
		c-0.597-0.296-0.895-0.894-0.895-1.489v-23.862c0-0.599,0.299-1.192,0.895-1.491l20.58-11.932c0.598-0.298,1.194-0.298,1.789,0
		l20.581,11.932c0.598,0.299,0.895,0.893,0.895,1.491V213.146z"/>
	<path fill="#FFFFFF" d="M721.753,188.686c2.089-1.192,3.579-3.577,3.579-6.264v-16.701c0-2.684-1.49-5.071-3.579-6.265
		l-59.655-34.6c-2.384-1.193-5.069-1.193-7.158,0l-59.954,34.6c-2.088,1.193-3.578,3.581-3.578,6.265v69.2
		c0,2.684,1.49,5.069,3.578,6.265l59.357,34c2.087,1.194,4.771,1.194,7.158,0l36.092-19.983c1.193-0.596,1.79-1.79,1.79-3.282
		c0-1.192-0.597-2.385-1.79-3.281l-60.252-34.599c-1.192-0.599-1.79-1.791-1.79-3.283v-21.774c0-1.192,0.598-2.388,1.79-3.281
		l18.792-10.739c1.193-0.595,2.386-0.595,3.579,0l18.791,10.739c1.193,0.598,1.79,1.79,1.79,3.281v17.003
		c0,1.19,0.598,2.386,1.79,2.98c1.192,0.599,2.386,0.599,3.578,0L721.753,188.686z"/>
	<path fill="#80BD01" d="M296.711,124.558c2.089-1.193,5.072-1.193,7.159,0l59.952,34.601c2.387,1.193,3.579,3.579,3.579,6.263
		v69.201c0,2.684-1.49,5.07-3.579,6.263l-59.952,34.6c-2.387,1.192-5.07,1.192-7.159,0l-59.952-34.6
		c-2.088-1.192-3.579-3.579-3.579-6.263v-69.201c0-2.684,1.491-5.069,3.579-6.263L296.711,124.558z"/>
	<path fill="#80BD01" d="M838.08,276.38c-2.086,0-4.175-0.597-5.966-1.491l-18.792-11.037c-2.684-1.491-1.491-2.087-0.596-2.386
		c3.877-1.194,4.474-1.491,8.649-3.879c0.298-0.296,0.893,0,1.491,0l14.615,8.65c0.597,0.298,1.194,0.298,1.789,0l56.374-32.512
		c0.598-0.299,0.895-0.895,0.895-1.491v-65.323c0-0.599-0.298-1.192-0.895-1.492l-56.374-32.512c-0.595-0.298-1.192-0.298-1.789,0
		l-56.672,32.213c-0.599,0.299-0.896,0.896-0.896,1.491v65.024c0,0.599,0.298,1.192,0.896,1.491l15.511,8.948
		c8.351,4.176,13.422-0.597,13.422-5.666v-64.131c0-0.894,0.597-1.491,1.789-1.491h7.158c0.896,0,1.494,0.598,1.494,1.491v64.429
		c0,11.333-5.967,17.599-16.703,17.599c-3.281,0-5.966,0-13.125-3.58l-14.913-8.65c-3.58-2.087-5.967-5.965-5.967-10.439v-64.725
		c0-4.177,2.387-8.054,5.967-10.439l56.671-32.512c3.579-2.089,8.353-2.089,11.932,0l56.374,32.512
		c3.579,2.087,5.964,5.964,5.964,10.439v65.024c0,4.176-2.384,8.053-5.964,10.438l-56.374,32.513
		C841.958,275.783,840.168,276.38,838.08,276.38z"/>
	<path fill="#80BD01" d="M855.381,231.638c-24.758,0-29.828-11.333-29.828-20.879c0-0.895,0.597-1.492,1.491-1.492h7.158
		c0.896,0,1.493,0.598,1.493,1.492c1.192,7.457,4.474,11.037,19.387,11.037c11.932,0,17.002-2.685,17.002-8.948
		c0-3.581-1.491-6.265-19.984-8.055c-15.511-1.491-25.056-5.069-25.056-17.3c0-11.332,9.545-18.195,25.652-18.195
		c18.195,0,27.145,6.265,28.038,19.687c0,0.597,0,0.895-0.299,1.193c-0.298,0.299-0.596,0.599-1.193,0.599h-7.457
		c-0.893,0-1.49-0.599-1.49-1.195c-1.79-7.754-5.966-10.439-17.599-10.439c-13.125,0-14.616,4.478-14.616,8.054
		c0,4.176,1.789,5.368,19.389,7.756c17.299,2.386,25.651,5.667,25.651,17.599C883.419,224.479,873.277,231.638,855.381,231.638z"/>
	<path fill="#80BD01" d="M657.623,185.404c0.299-0.296,0.896-0.296,1.492,0l11.634,6.563c0.298,0.299,0.596,0.595,0.596,1.192
		v13.124c0,0.598-0.298,0.893-0.596,1.192l-11.634,6.563c-0.298,0.299-0.896,0.299-1.492,0l-11.332-6.563
		c-0.3-0.3-0.598-0.596-0.598-1.192V193.16c0-0.599,0.298-0.894,0.598-1.192L657.623,185.404z"/>
</g>
</svg>
